# AST/ASF file generated using VICON BodyLanguage
# -----------------------------------------------
:version 1.10
:name VICON
:units
  mass 1.0
  length 0.1
  angle deg
:documentation
   .ast/.asf automatically generated from VICON data using
   VICON BodyBuilder and BodyLanguage model FULLBODY5.MOD
:root
   order TX TY TZ RZ RY RX
   axis XYZ
   position 0 0 0  
   orientation 0 -0 0 
:bonedata
  begin
     id 1 
     name lhipjoint
     direction 0.961525 -0.229516 0.150972 
     length 0.502153 
     axis 0 -0 0  XYZ
  end
  begin
     id 2 
     name lfemur
     direction 0.173648 -0.984808 0  
     length 1.83052  
     axis 0 -0 10  XYZ
    dof rx ry rz
    limits (-180.0 180.0)
           (-180.0 180.0)
           (-180.0 180.0)
  end
  begin
     id 3 
     name ltibia
     direction 0.173629 -0.984811 0   
     length 1.50296   
     axis 0 -0 10   XYZ
    dof rx ry rz
    limits (-180.0 180.0)
           (-180.0 180.0)
           (-180.0 180.0)
  end
  begin
     id 4 
     name lfoot
     direction 7.59329e-012 -0.227408 0.9738   
     length 0.574743   
     axis -90 -1.73656e-015 10   XYZ
    dof rx ry rz
    limits (-180.0 180.0)
           (-180.0 180.0)
           (-180.0 180.0)
  end
  begin
     id 5 
     name ltoes
     direction 7.79885e-012 -4.41741e-011 1   
     length 0.28489   
     axis -90 -1.73656e-015 10   XYZ
    dof rx ry rz
    limits (-180.0 180.0)
           (-180.0 180.0)
           (-180.0 180.0)
  end
  begin
     id 6 
     name rhipjoint
     direction -0.970498 -0.201437 0.132502   
     length 0.572149  
     axis 0 -0 0  XYZ 
  end
  begin
     id 7 
     name rfemur
     direction -0.173648 -0.984808 0   
     length 1.71866   
     axis 0 -0 -10   XYZ
    dof rx ry rz
    limits (-180.0 180.0)
           (-180.0 180.0)
           (-180.0 180.0)
  end
  begin
     id 8 
     name rtibia
     direction -0.173624 -0.984812 0   
     length 1.42623   
     axis 0 -0 -10   XYZ
    dof rx ry rz
    limits (-180.0 180.0)
           (-180.0 180.0)
           (-180.0 180.0)
 end
 begin
     id 9 
     name rfoot
     direction -7.12931e-012 -0.404275 0.914637   
     length 0.524692  
     axis -90 1.73656e-015 -10   XYZ
    dof rx ry rz
    limits (-180.0 180.0)
           (-180.0 180.0)
           (-180.0 180.0)
  end
  begin
     id 10 
     name rtoes
     direction -7.79289e-012 -4.41454e-011 1   
     length 0.254983   
     axis -90 1.73656e-015 -10   XYZ
    dof rx ry rz
    limits (-180.0 180.0)
           (-180.0 180.0)
           (-180.0 180.0)
  end
  begin
     id 11 
     name lowerback
     direction -0.0214086 0.993738 0.109665   
     length 0.417614   
     axis 0 -0 0   XYZ
    dof rx ry rz
    limits (-180.0 180.0)
           (-180.0 180.0)
           (-180.0 180.0)
  end
  begin
     id 12 
     name upperback
     direction 8.15962e-005 0.99996 0.00893412   
     length 0.419234   
     axis 0 -0 0   XYZ
    dof rx ry rz
    limits (-180.0 180.0)
           (-180.0 180.0)
           (-180.0 180.0)
  end
  begin
     id 13 
     name thorax
     direction 0.00826031 0.999067 -0.0423848   
     length 0.424697   
     axis 0 -0 0   XYZ
    dof rx ry rz
    limits (-180.0 180.0)
           (-180.0 180.0)
           (-180.0 180.0)
  end
  begin
     id 14 
     name lowerneck
     direction -0.0196262 0.994272 -0.105058   
     length 0.355877   
     axis 0 -0 0   XYZ
    dof rx ry rz
    limits (-180.0 180.0)
           (-180.0 180.0)
           (-180.0 180.0)
  end
  begin
     id 15 
     name upperneck
     direction 0.000117372 0.999091 0.0426261   
     length 0.351054   
     axis 0 -0 0   XYZ
    dof rx ry rz
    limits (-180.0 180.0)
           (-180.0 180.0)
           (-180.0 180.0)
  end
  begin
     id 16
     name head
     direction 0.00157618 0.999651 0.0263619  
     length 0.374844  
     axis 0 -0 0   XYZ
    dof rx ry rz
    limits (-180.0 180.0)
           (-180.0 180.0)
           (-180.0 180.0)
  end
  begin
     id 17 
     name lshoulderjoint
     direction 0.981627 -0.190809 0  
     length 0.701763  
     axis 0 -0 -11   XYZ
    dof rx ry rz
    limits (-180.0 180.0)
           (-180.0 180.0)
           (-180.0 180.0)
  end
  begin
     id 18 
     name lhumerus
     direction 0.48481 -0.87462 -1.80676e-026   
     length 0.994704   
     axis -180 5.14477e-009 -151   XYZ
    dof rx ry rz
    limits (-180.0 180.0)
           (-180.0 180.0)
           (-180.0 180.0)
  end
  begin
     id 19
     name lradius
     direction 0.48481 -0.87462 -3.2569e-026   
     length 0.617638   
     axis -180 5.14477e-009 -151   XYZ
    dof rx ry rz
    limits (-180.0 180.0)
           (-180.0 180.0)
           (-180.0 180.0)
  end
  begin
     id 20
     name lwrist
     direction 0.48481 -0.87462 -6.73202e-026   
     length 0.308819   
     axis -180 5.14477e-009 -151   XYZ
    dof rx ry rz
    limits (-180.0 180.0)
           (-180.0 180.0)
           (-180.0 180.0)
  end
  begin
     id 21 
     name lhand
     direction 0.478366 -0.863761 -0.158376   
     length 0.291656   
     axis -180 5.14477e-009 -151   XYZ
    dof rx ry rz
    limits (-180.0 180.0)
           (-180.0 180.0)
           (-180.0 180.0)
  end
  begin
     id 22 
     name rshoulderjoint
     direction -0.981627 -0.190809 0   
     length 0.66654  
     axis 0 -0 11   XYZ 
    dof rx ry rz
    limits (-180.0 180.0)
           (-180.0 180.0)
           (-180.0 180.0)
  end
  begin
     id 23 
     name rhumerus
     direction -0.48481 -0.87462 1.77576e-026  
     length 1.15089   
     axis 180 5.14477e-009 151   XYZ
    dof rx ry rz
    limits (-180.0 180.0)
           (-180.0 180.0)
           (-180.0 180.0)
  end
  begin
     id 24 
     name rradius
     direction -0.48481 -0.87462 3.79421e-026   
     length 0.613887   
     axis 180 5.14477e-009 151   XYZ
    dof rx ry rz
    limits (-180.0 180.0)
           (-180.0 180.0)
           (-180.0 180.0)
  end
  begin
     id 25 
     name rwrist
     direction -0.48481 -0.87462 5.43623e-026   
     length 0.306944   
     axis 180 5.14477e-009 151   XYZ
    dof rx ry rz
    limits (-180.0 180.0)
           (-180.0 180.0)
           (-180.0 180.0)
  end
  begin
     id 26
     name rhand
     direction -0.479273 -0.864638 -0.150661   
     length 0.306429   
     axis 180 5.14477e-009 151   XYZ
    dof rx ry rz
    limits (-180.0 180.0)
           (-180.0 180.0)
           (-180.0 180.0)
  end
:hierarchy
  begin
    root lhipjoint rhipjoint lowerback 
    lhipjoint lfemur
    lfemur ltibia
    ltibia lfoot
    lfoot ltoes
    rhipjoint rfemur
    rfemur rtibia
    rtibia rfoot
    rfoot rtoes
    lowerback upperback
    upperback thorax
    thorax lowerneck lshoulderjoint rshoulderjoint
    lowerneck upperneck
    upperneck head
    lshoulderjoint lhumerus
    lhumerus lradius
    lradius lwrist
    lwrist lhand
    rshoulderjoint rhumerus
    rhumerus rradius
    rradius rwrist
    rwrist rhand
  end

:FULLY-SPECIFIED
:DEGREES
1696
root 4.98754 3.43305 -0.198515 -109.764 80.0157 107.921
lowerback -12.6331 -4.16013 4.26016
upperback -2.30611 -6.08298 2.2346
thorax 4.42869 -2.90691 -1.01673
lowerneck 8.99511 2.45544 -3.75369
upperneck -3.27895 2.92462 1.32042
head -2.70381 1.46483 0.932015
rshoulderjoint 1.52388 -4.00897 -31.8327
rhumerus -10.5799 -32.5523 -53.4583
rradius 24.2756 6.93361e-013 2.20253e-013
rwrist 7.28081e-013 8.75323 -2.83187e-013
rhand 9.30812 -6.87745 31.838
lshoulderjoint 2.59001 10.1206 25.4359
lhumerus 14.1926 16.9326 58.0779
lradius 15.6004 -3.72125e-013 9.30312e-014
lwrist 4.93619e-013 -7.1264 4.48744e-013
lhand 26.9688 7.37215 -11.0985
rfemur -27.0953 -6.39264 18.9181
rtibia 19.5577 3.10104e-014 -1.74931e-014
rfoot -2.89684 16.7541 -8.01844
rtoes 5.1684e-014 -1.73638e-013 1.41535e-013
lfemur -11.9032 -9.91117 -13.3053
ltibia 66.2162 2.3059e-014 1.74931e-014
lfoot 2.37713 6.60915 10.001
ltoes -2.09917e-013 3.97569e-015 -3.99557e-014
1697
root 5.02634 3.44112 -0.194953 -111.527 79.9335 109.365
lowerback -12.3523 -4.08688 4.46958
upperback -2.34098 -5.9973 2.33391
thorax 4.23039 -2.86739 -0.991443
lowerneck 8.94978 2.3328 -3.75126
upperneck -3.16535 2.76556 1.35805
head -2.65314 1.38393 0.952733
rshoulderjoint 1.49349 -3.89892 -31.9786
rhumerus -9.84838 -29.4412 -53.9507
rradius 24.7414 8.26944e-014 1.37559e-013
rwrist 6.55463e-013 8.15591 8.83589e-014
rhand 8.36845 -7.26948 32.5961
lshoulderjoint 2.54823 9.97758 25.4056
lhumerus 14.2034 18.3632 58.641
lradius 14.4752 -7.63333e-014 -6.36111e-015
lwrist 8.81732e-013 -5.39004 1.10216e-013
lhand 26.8798 5.37079 -8.93992
rfemur -25.9684 -7.37294 19.4728
rtibia 18.6369 1.27222e-014 -2.06736e-014
rfoot -2.88407 16.9566 -7.36848
rtoes 8.26944e-014 -8.34896e-014 -9.54166e-015
lfemur -13.9584 -9.91413 -12.9354
ltibia 68.7134 -3.18055e-015 8.74653e-015
lfoot 4.32057 4.29714 11.2946
ltoes -2.8943e-013 4.69132e-014 5.1684e-015
1698
root 5.06437 3.45076 -0.191548 -112.946 79.793 110.572
lowerback -12.194 -4.00347 4.52688
upperback -2.38224 -5.8837 2.41826
thorax 4.10815 -2.81374 -0.904543
lowerneck 9.11943 2.17646 -3.73082
upperneck -3.11337 2.55358 1.35906
head -2.66103 1.27772 0.959561
rshoulderjoint 1.45644 -3.77366 -32.1221
rhumerus -9.12077 -27.6544 -54.3796
rradius 25.2664 3.49861e-014 -4.21423e-014
rwrist 3.32447e-013 8.02942 -1.52572e-013
rhand 7.89033 -7.0905 33.026
lshoulderjoint 2.48907 9.80649 25.3175
lhumerus 14.148 19.6249 59.0791
lradius 13.5558 -2.8625e-014 7.59357e-014
lwrist 6.82291e-013 -3.98837 2.07238e-013
lhand 26.2918 3.9344 -7.16751
rfemur -24.8007 -8.11245 19.8375
rtibia 17.4586 2.38542e-015 -3.97569e-015
rfoot -2.71775 17.0941 -6.88368
rtoes -3.69739e-014 -5.54609e-014 1.74931e-014
lfemur -16.0738 -9.87267 -12.6493
ltibia 70.8052 -3.18055e-015 0
lfoot 5.42309 1.98629 12.6715
ltoes -8.5875e-014 5.1684e-015 -2.3059e-014
1699
root 5.10202 3.46148 -0.188312 -114.009 79.6144 111.473
lowerback -11.8646 -3.88982 4.63193
upperback -2.68674 -5.69999 2.42479
thorax 3.60538 -2.73512 -0.889901
lowerneck 9.60753 2.03751 -3.65489
upperneck -2.91609 2.36477 1.4264
head -2.68031 1.17888 0.975483
rshoulderjoint 1.43886 -3.70584 -32.2372
rhumerus -8.84698 -26.0206 -54.5443
rradius 25.8442 -3.81667e-013 -3.26007e-014
rwrist 4.71965e-013 7.8506 2.18324e-013
rhand 7.54231 -6.80571 33.3913
lshoulderjoint 2.43355 9.53228 25.3933
lhumerus 13.657 21.3893 59.544
lradius 12.8146 2.16278e-013 -1.20464e-013
lwrist 8.79082e-013 -3.05494 -2.86657e-013
lhand 25.5166 2.462 -5.78386
rfemur -23.5282 -8.78093 20.1299
rtibia 15.9326 -1.82882e-014 -8.74653e-015
rfoot -2.42936 17.1573 -6.36046
rtoes 6.59965e-014 5.61567e-014 -1.59028e-013
lfemur -18.1867 -9.80515 -12.4065
ltibia 72.4982 -2.22639e-014 -7.95139e-015
lfoot 5.11563 0.58589 14.0936
ltoes -1.87653e-013 -2.20651e-014 -1.51076e-014
1700
root 5.13948 3.47283 -0.185132 -114.541 79.4617 111.987
lowerback -11.7538 -3.75085 4.53413
upperback -2.78506 -5.48858 2.4015
thorax 3.45774 -2.63529 -0.819024
lowerneck 9.73919 1.87121 -3.53369
upperneck -2.70024 2.15642 1.45909
head -2.6244 1.07167 0.97526
rshoulderjoint 1.41609 -3.62837 -32.3368
rhumerus -8.23371 -24.6359 -54.8795
rradius 26.5004 -2.3218e-013 -2.90226e-014
rwrist 2.24607e-014 7.59023 1.62038e-013
rhand 7.35038 -6.50047 33.7231
lshoulderjoint 2.40365 9.38622 25.4337
lhumerus 13.2546 21.5957 59.6347
lradius 12.3292 2.16278e-013 -4.77083e-015
lwrist 1.624e-013 -2.7866 -9.23453e-014
lhand 24.4435 2.92521 -5.01685
rfemur -22.1666 -9.41081 20.2711
rtibia 14.1834 -1.74931e-014 1.43125e-014
rfoot -2.12163 17.233 -5.76812
rtoes -5.96354e-014 7.69297e-014 -4.77083e-014
lfemur -20.2052 -9.67824 -12.3127
ltibia 73.7821 -8.74653e-015 -9.54166e-015
lfoot 4.17619 -0.162703 15.3448
ltoes 1.11319e-013 -5.76476e-014 1.11319e-013
1701
root 5.17691 3.48417 -0.182093 -114.51 79.3157 112.1
lowerback -11.75 -3.63124 4.25408
upperback -2.8391 -5.29195 2.36311
thorax 3.42964 -2.54113 -0.675741
lowerneck 9.8453 1.7472 -3.46085
upperneck -2.51885 1.99826 1.46579
head -2.57735 0.991328 0.97247
rshoulderjoint 1.42849 -3.63952 -32.4469
rhumerus -7.49688 -23.1817 -55.1718
rradius 27.1978 1.11319e-013 -1.43125e-014
rwrist 1.09096e-013 7.59572 -1.33161e-013
rhand 7.02966 -6.47766 34.0122
lshoulderjoint 2.39772 9.38648 25.3991
lhumerus 12.9396 22.5456 59.9189
lradius 11.9814 -7.31528e-014 4.77083e-014
lwrist 1.59142e-013 -2.16998 1.25722e-013
lhand 23.6433 1.97927 -4.42697
rfemur -20.7033 -9.63907 20.1483
rtibia 12.1824 -5.56597e-015 -7.95139e-015
rfoot -1.77682 17.2199 -5.48062
rtoes -3.10104e-014 3.97569e-014 -3.97569e-014
lfemur -22.1339 -9.52276 -12.38
ltibia 74.6894 -1.59028e-015 -1.59028e-015
lfoot 2.94234 -0.0135877 16.4139
ltoes 4.13472e-014 -7.15625e-015 -2.38542e-014
1702
root 5.21426 3.49533 -0.179218 -114.109 79.2087 111.878
lowerback -11.7614 -3.48843 3.97755
upperback -2.8758 -5.0665 2.29307
thorax 3.42422 -2.43215 -0.564583
lowerneck 9.90125 1.6258 -3.41814
upperneck -2.30395 1.84421 1.51782
head -2.51115 0.911924 0.989545
rshoulderjoint 1.46908 -3.73092 -32.5105
rhumerus -6.77734 -21.7417 -55.3978
rradius 27.9542 9.22361e-014 -5.70512e-014
rwrist -1.12144e-012 7.59514 -4.65262e-014
rhand 6.73841 -6.49882 34.2656
lshoulderjoint 2.40749 9.43242 25.3886
lhumerus 12.5389 23.5014 60.1989
lradius 11.8299 -6.67916e-014 7.87187e-014
lwrist -1.2378e-012 -1.73629 1.55919e-013
lhand 23.047 0.851863 -4.10899
rfemur -19.0808 -9.79444 19.9797
rtibia 9.85051 -1.27222e-014 3.57812e-014
rfoot -1.26392 17.2376 -5.15271
rtoes -1.4392e-013 1.01579e-013 1.90833e-014
lfemur -23.9344 -9.3396 -12.4913
ltibia 75.219 0 -5.56597e-015
lfoot 1.51351 0.21737 17.2379
ltoes 3.81667e-013 -1.15295e-013 1.04958e-013
